{
	"asset":{
		"generator":"Khronos glTF Blender I/O v4.0.44",
		"version":"2.0"
	},
	"scene":0,
	"scenes":[
		{
			"name":"Scene",
			"nodes":[
				0
			]
		}
	],
	"nodes":[
		{
			"mesh":0,
			"name":"Cylinder",
			"scale":[
				5.536322593688965,
				4.18450403213501,
				5.536322593688965
			],
			"translation":[
				0,
				2.1883914470672607,
				0
			]
		}
	],
	"materials":[
		{
			"doubleSided":true,
			"name":"Material.001",
			"pbrMetallicRoughness":{
				"baseColorFactor":[
					0.919357180595398,
					0.8310582041740417,
					0.7458579540252686,
					1
				],
				"metallicFactor":0,
				"roughnessFactor":0.5
			}
		},
		{
			"doubleSided":true,
			"name":"Material.002",
			"pbrMetallicRoughness":{
				"baseColorFactor":[
					0.9147436618804932,
					0.3294215798377991,
					0.5943021178245544,
					1
				],
				"metallicFactor":0,
				"roughnessFactor":0.5
			}
		}
	],
	"meshes":[
		{
			"name":"Cylinder.001",
			"primitives":[
				{
					"attributes":{
						"POSITION":0,
						"NORMAL":1,
						"TEXCOORD_0":2
					},
					"indices":3,
					"material":0
				},
				{
					"attributes":{
						"POSITION":4,
						"NORMAL":5,
						"TEXCOORD_0":6
					},
					"indices":7,
					"material":1
				}
			]
		}
	],
	"accessors":[
		{
			"bufferView":0,
			"componentType":5126,
			"count":1024,
			"max":[
				1,
				0.5414690375328064,
				1
			],
			"min":[
				-1,
				-0.5,
				-1
			],
			"type":"VEC3"
		},
		{
			"bufferView":1,
			"componentType":5126,
			"count":1024,
			"type":"VEC3"
		},
		{
			"bufferView":2,
			"componentType":5126,
			"count":1024,
			"type":"VEC2"
		},
		{
			"bufferView":3,
			"componentType":5123,
			"count":1908,
			"type":"SCALAR"
		},
		{
			"bufferView":4,
			"componentType":5126,
			"count":8783,
			"max":[
				1.033557653427124,
				0.5859043598175049,
				1.033557653427124
			],
			"min":[
				-1.033557653427124,
				-0.22553031146526337,
				-1.033640742301941
			],
			"type":"VEC3"
		},
		{
			"bufferView":5,
			"componentType":5126,
			"count":8783,
			"type":"VEC3"
		},
		{
			"bufferView":6,
			"componentType":5126,
			"count":8783,
			"type":"VEC2"
		},
		{
			"bufferView":7,
			"componentType":5123,
			"count":17658,
			"type":"SCALAR"
		}
	],
	"bufferViews":[
		{
			"buffer":0,
			"byteLength":12288,
			"byteOffset":0,
			"target":34962
		},
		{
			"buffer":0,
			"byteLength":12288,
			"byteOffset":12288,
			"target":34962
		},
		{
			"buffer":0,
			"byteLength":8192,
			"byteOffset":24576,
			"target":34962
		},
		{
			"buffer":0,
			"byteLength":3816,
			"byteOffset":32768,
			"target":34963
		},
		{
			"buffer":0,
			"byteLength":105396,
			"byteOffset":36584,
			"target":34962
		},
		{
			"buffer":0,
			"byteLength":105396,
			"byteOffset":141980,
			"target":34962
		},
		{
			"buffer":0,
			"byteLength":70264,
			"byteOffset":247376,
			"target":34962
		},
		{
			"buffer":0,
			"byteLength":35316,
			"byteOffset":317640,
			"target":34963
		}
	],
	"buffers":[
		{
			"byteLength":352956,
			"uri":"syrup1.bin"
		}
	]
}
